<svg xmlns="http://www.w3.org/2000/svg" xmlns:xlink="http://www.w3.org/1999/xlink" width="500" zoomAndPan="magnify" viewBox="0 0 375 374.999991" height="500" preserveAspectRatio="xMidYMid meet" version="1.0"><defs><g/><clipPath id="98d5788b7d"><path d="M 187.5 0 C 83.945312 0 0 83.945312 0 187.5 C 0 291.054688 83.945312 375 187.5 375 C 291.054688 375 375 291.054688 375 187.5 C 375 83.945312 291.054688 0 187.5 0 Z M 187.5 0 " clip-rule="nonzero"/></clipPath></defs><g clip-path="url(#98d5788b7d)"><rect x="-37.5" width="450" fill="#ffffff" y="-37.499999" height="449.999989" fill-opacity="1"/></g><path fill="#00acbc" d="M 264.089844 224.441406 C 256.957031 231.578125 245.386719 231.578125 238.253906 224.441406 C 231.121094 217.308594 231.121094 205.742188 238.253906 198.609375 C 245.390625 191.472656 256.957031 191.472656 264.089844 198.609375 C 271.222656 205.742188 271.222656 217.308594 264.089844 224.441406 " fill-opacity="1" fill-rule="evenodd"/><path fill="#00acbc" d="M 200.3125 250.859375 C 193.175781 257.996094 181.613281 257.996094 174.476562 250.859375 C 167.34375 243.726562 167.34375 232.15625 174.476562 225.027344 C 181.613281 217.890625 193.175781 217.890625 200.3125 225.027344 C 207.441406 232.160156 207.441406 243.730469 200.3125 250.859375 " fill-opacity="1" fill-rule="evenodd"/><path fill="#00acbc" d="M 136.535156 224.441406 C 129.398438 231.578125 117.832031 231.578125 110.699219 224.441406 C 103.566406 217.308594 103.566406 205.742188 110.699219 198.609375 C 117.832031 191.472656 129.398438 191.472656 136.535156 198.609375 C 143.667969 205.742188 143.667969 217.308594 136.535156 224.441406 " fill-opacity="1" fill-rule="evenodd"/><path fill="#00acbc" d="M 110.109375 160.664062 C 102.976562 167.800781 91.410156 167.800781 84.277344 160.664062 C 77.140625 153.53125 77.140625 141.964844 84.277344 134.832031 C 91.410156 127.695312 102.976562 127.695312 110.109375 134.832031 C 117.246094 141.964844 117.246094 153.53125 110.109375 160.664062 " fill-opacity="1" fill-rule="evenodd"/><path fill="#00acbc" d="M 264.671875 134.832031 C 271.808594 127.695312 283.371094 127.695312 290.507812 134.832031 C 297.640625 141.964844 297.640625 153.53125 290.507812 160.664062 C 283.371094 167.800781 271.808594 167.800781 264.671875 160.664062 C 257.539062 153.535156 257.539062 141.964844 264.671875 134.832031 " fill-opacity="1" fill-rule="evenodd"/><path fill="#00acbc" d="M 136.535156 96.886719 C 129.398438 104.019531 117.832031 104.019531 110.699219 96.886719 C 103.566406 89.75 103.566406 78.1875 110.699219 71.050781 C 117.832031 63.917969 129.398438 63.917969 136.535156 71.050781 C 143.667969 78.1875 143.667969 89.75 136.535156 96.886719 " fill-opacity="1" fill-rule="evenodd"/><path fill="#00acbc" d="M 200.3125 70.46875 C 193.175781 77.605469 181.613281 77.605469 174.476562 70.46875 C 167.34375 63.335938 167.34375 51.769531 174.476562 44.632812 C 181.605469 37.5 193.175781 37.5 200.3125 44.632812 C 207.441406 51.769531 207.441406 63.335938 200.3125 70.46875 " fill-opacity="1" fill-rule="evenodd"/><path fill="#00acbc" d="M 264.089844 96.886719 C 256.957031 104.019531 245.386719 104.019531 238.253906 96.886719 C 231.121094 89.75 231.121094 78.1875 238.253906 71.050781 C 245.390625 63.917969 256.957031 63.917969 264.089844 71.050781 C 271.222656 78.1875 271.222656 89.75 264.089844 96.886719 " fill-opacity="1" fill-rule="evenodd"/><path fill="#00acbc" d="M 187.390625 118.613281 C 196.984375 118.613281 204.761719 126.390625 204.761719 135.984375 C 204.761719 142.234375 201.460938 147.714844 196.5 150.773438 L 200.472656 176.875 L 174.304688 176.875 L 178.277344 150.773438 C 173.320312 147.710938 170.019531 142.234375 170.019531 135.984375 C 170.023438 126.394531 177.800781 118.613281 187.390625 118.613281 " fill-opacity="1" fill-rule="evenodd"/><path fill="#00acbc" d="M 212.957031 213.296875 C 206.859375 215.675781 199.988281 212.660156 197.605469 206.5625 C 195.230469 200.46875 198.242188 193.59375 204.339844 191.21875 C 210.441406 188.84375 217.308594 191.855469 219.6875 197.953125 C 222.066406 204.046875 219.054688 210.921875 212.957031 213.296875 " fill-opacity="1" fill-rule="evenodd"/><path fill="#00acbc" d="M 168.1875 212.363281 C 162.089844 214.742188 155.21875 211.726562 152.835938 205.632812 C 150.460938 199.535156 153.472656 192.664062 159.570312 190.285156 C 165.671875 187.90625 172.539062 190.917969 174.921875 197.019531 C 177.300781 203.117188 174.285156 209.984375 168.1875 212.363281 " fill-opacity="1" fill-rule="evenodd"/><path fill="#00acbc" d="M 137.1875 180.050781 C 131.089844 182.425781 124.222656 179.414062 121.84375 173.3125 C 119.46875 167.214844 122.480469 160.347656 128.578125 157.96875 C 134.675781 155.59375 141.546875 158.605469 143.921875 164.703125 C 146.300781 170.796875 143.289062 177.667969 137.1875 180.050781 " fill-opacity="1" fill-rule="evenodd"/><path fill="#00acbc" d="M 138.121094 135.277344 C 132.019531 137.65625 125.152344 134.640625 122.773438 128.542969 C 120.398438 122.445312 123.410156 115.578125 129.507812 113.199219 C 135.609375 110.824219 142.476562 113.835938 144.855469 119.933594 C 147.234375 126.027344 144.21875 132.902344 138.121094 135.277344 " fill-opacity="1" fill-rule="evenodd"/><path fill="#00acbc" d="M 236.660156 160.222656 C 242.757812 157.84375 249.628906 160.859375 252.003906 166.957031 C 254.382812 173.054688 251.367188 179.921875 245.269531 182.300781 C 239.171875 184.675781 232.300781 181.664062 229.925781 175.566406 C 227.546875 169.46875 230.5625 162.597656 236.660156 160.222656 " fill-opacity="1" fill-rule="evenodd"/><path fill="#00acbc" d="M 170.4375 104.28125 C 164.339844 106.65625 157.46875 103.644531 155.09375 97.546875 C 152.714844 91.449219 155.730469 84.578125 161.828125 82.203125 C 167.925781 79.824219 174.796875 82.839844 177.171875 88.933594 C 179.554688 95.035156 176.535156 101.90625 170.4375 104.28125 " fill-opacity="1" fill-rule="evenodd"/><path fill="#00acbc" d="M 215.207031 105.210938 C 209.109375 107.589844 202.238281 104.574219 199.859375 98.476562 C 197.480469 92.378906 200.496094 85.507812 206.59375 83.132812 C 212.691406 80.757812 219.5625 83.769531 221.941406 89.867188 C 224.320312 95.964844 221.304688 102.835938 215.207031 105.210938 " fill-opacity="1" fill-rule="evenodd"/><path fill="#00acbc" d="M 246.203125 137.53125 C 240.105469 139.90625 233.238281 136.894531 230.855469 130.796875 C 228.480469 124.699219 231.492188 117.828125 237.589844 115.449219 C 243.6875 113.074219 250.558594 116.085938 252.933594 122.1875 C 255.320312 128.277344 252.304688 135.152344 246.203125 137.53125 " fill-opacity="1" fill-rule="evenodd"/><g fill="#5271ff" fill-opacity="1"><g transform="translate(50.268869, 300.991795)"><g><path d="M 18.15625 -41.875 C 20.375 -41.875 22.546875 -41.550781 24.671875 -40.90625 C 26.804688 -40.257812 28.390625 -39.617188 29.421875 -38.984375 L 30.90625 -38 L 27.125 -30.515625 C 26.820312 -30.710938 26.40625 -30.96875 25.875 -31.28125 C 25.34375 -31.601562 24.34375 -32.03125 22.875 -32.5625 C 21.414062 -33.09375 20.054688 -33.359375 18.796875 -33.359375 C 17.234375 -33.359375 16.023438 -33.023438 15.171875 -32.359375 C 14.328125 -31.691406 13.90625 -30.796875 13.90625 -29.671875 C 13.90625 -29.097656 14.101562 -28.570312 14.5 -28.09375 C 14.90625 -27.613281 15.585938 -27.097656 16.546875 -26.546875 C 17.515625 -26.003906 18.363281 -25.566406 19.09375 -25.234375 C 19.820312 -24.898438 20.953125 -24.398438 22.484375 -23.734375 C 25.140625 -22.597656 27.40625 -21.054688 29.28125 -19.109375 C 31.164062 -17.171875 32.109375 -14.972656 32.109375 -12.515625 C 32.109375 -10.148438 31.679688 -8.085938 30.828125 -6.328125 C 29.984375 -4.566406 28.820312 -3.1875 27.34375 -2.1875 C 25.863281 -1.195312 24.226562 -0.460938 22.4375 0.015625 C 20.644531 0.503906 18.703125 0.75 16.609375 0.75 C 14.804688 0.75 13.039062 0.566406 11.3125 0.203125 C 9.582031 -0.160156 8.132812 -0.617188 6.96875 -1.171875 C 5.8125 -1.722656 4.765625 -2.265625 3.828125 -2.796875 C 2.898438 -3.328125 2.222656 -3.773438 1.796875 -4.140625 L 1.140625 -4.6875 L 5.828125 -12.5625 C 6.234375 -12.226562 6.785156 -11.800781 7.484375 -11.28125 C 8.179688 -10.769531 9.414062 -10.082031 11.1875 -9.21875 C 12.96875 -8.351562 14.539062 -7.921875 15.90625 -7.921875 C 19.863281 -7.921875 21.84375 -9.269531 21.84375 -11.96875 C 21.84375 -12.53125 21.695312 -13.050781 21.40625 -13.53125 C 21.125 -14.019531 20.625 -14.503906 19.90625 -14.984375 C 19.195312 -15.460938 18.566406 -15.84375 18.015625 -16.125 C 17.472656 -16.40625 16.578125 -16.835938 15.328125 -17.421875 C 14.085938 -18.003906 13.164062 -18.445312 12.5625 -18.75 C 10.070312 -19.976562 8.144531 -21.515625 6.78125 -23.359375 C 5.414062 -25.203125 4.734375 -27.1875 4.734375 -29.3125 C 4.734375 -33.007812 6.09375 -36.023438 8.8125 -38.359375 C 11.539062 -40.703125 14.65625 -41.875 18.15625 -41.875 Z M 18.15625 -41.875 "/></g></g></g><g fill="#5271ff" fill-opacity="1"><g transform="translate(83.770738, 300.991795)"><g><path d="M 28.875 -11.5625 L 10.328125 -11.5625 C 10.328125 -9.769531 10.90625 -8.441406 12.0625 -7.578125 C 13.226562 -6.710938 14.492188 -6.28125 15.859375 -6.28125 C 17.285156 -6.28125 18.410156 -6.46875 19.234375 -6.84375 C 20.066406 -7.226562 21.019531 -7.988281 22.09375 -9.125 L 28.46875 -5.9375 C 25.8125 -1.476562 21.390625 0.75 15.203125 0.75 C 11.347656 0.75 8.039062 -0.570312 5.28125 -3.21875 C 2.519531 -5.863281 1.140625 -9.046875 1.140625 -12.765625 C 1.140625 -16.484375 2.519531 -19.671875 5.28125 -22.328125 C 8.039062 -24.992188 11.347656 -26.328125 15.203125 -26.328125 C 19.265625 -26.328125 22.566406 -25.15625 25.109375 -22.8125 C 27.648438 -20.46875 28.921875 -17.117188 28.921875 -12.765625 C 28.921875 -12.160156 28.90625 -11.757812 28.875 -11.5625 Z M 10.5625 -16.453125 L 20.296875 -16.453125 C 20.097656 -17.785156 19.570312 -18.804688 18.71875 -19.515625 C 17.875 -20.234375 16.785156 -20.59375 15.453125 -20.59375 C 13.992188 -20.59375 12.832031 -20.207031 11.96875 -19.4375 C 11.101562 -18.675781 10.632812 -17.679688 10.5625 -16.453125 Z M 10.5625 -16.453125 "/></g></g></g><g fill="#5271ff" fill-opacity="1"><g transform="translate(113.832686, 300.991795)"><g><path d="M 16.609375 -19.09375 C 14.941406 -19.09375 13.507812 -18.476562 12.3125 -17.25 C 11.113281 -16.019531 10.515625 -14.539062 10.515625 -12.8125 C 10.515625 -11.050781 11.113281 -9.554688 12.3125 -8.328125 C 13.507812 -7.097656 14.941406 -6.484375 16.609375 -6.484375 C 17.398438 -6.484375 18.148438 -6.582031 18.859375 -6.78125 C 19.578125 -6.976562 20.101562 -7.175781 20.4375 -7.375 L 20.890625 -7.671875 L 23.875 -1.546875 C 23.644531 -1.378906 23.320312 -1.171875 22.90625 -0.921875 C 22.488281 -0.671875 21.539062 -0.332031 20.0625 0.09375 C 18.582031 0.53125 17 0.75 15.3125 0.75 C 11.550781 0.75 8.25 -0.570312 5.40625 -3.21875 C 2.5625 -5.863281 1.140625 -9.03125 1.140625 -12.71875 C 1.140625 -16.4375 2.5625 -19.632812 5.40625 -22.3125 C 8.25 -24.988281 11.550781 -26.328125 15.3125 -26.328125 C 17 -26.328125 18.554688 -26.125 19.984375 -25.71875 C 21.421875 -25.320312 22.4375 -24.925781 23.03125 -24.53125 L 23.875 -23.9375 L 20.890625 -17.90625 C 19.796875 -18.695312 18.367188 -19.09375 16.609375 -19.09375 Z M 16.609375 -19.09375 "/></g></g></g><g fill="#5271ff" fill-opacity="1"><g transform="translate(138.310989, 300.991795)"><g><path d="M 11.3125 -25.578125 L 11.3125 -13.40625 C 11.3125 -10.882812 11.691406 -9.09375 12.453125 -8.03125 C 13.222656 -6.96875 14.519531 -6.4375 16.34375 -6.4375 C 18.175781 -6.4375 19.472656 -6.96875 20.234375 -8.03125 C 21.003906 -9.09375 21.390625 -10.882812 21.390625 -13.40625 L 21.390625 -25.578125 L 30.21875 -25.578125 L 30.21875 -11.265625 C 30.21875 -7.015625 29.109375 -3.945312 26.890625 -2.0625 C 24.679688 -0.1875 21.164062 0.75 16.34375 0.75 C 11.53125 0.75 8.019531 -0.1875 5.8125 -2.0625 C 3.601562 -3.945312 2.5 -7.015625 2.5 -11.265625 L 2.5 -25.578125 Z M 11.3125 -25.578125 "/></g></g></g><g fill="#5271ff" fill-opacity="1"><g transform="translate(171.015194, 300.991795)"><g><path d="M 2.984375 0 L 2.984375 -25.578125 L 11.8125 -25.578125 L 11.8125 -21.890625 L 11.921875 -21.890625 C 11.984375 -22.023438 12.085938 -22.191406 12.234375 -22.390625 C 12.390625 -22.585938 12.710938 -22.9375 13.203125 -23.4375 C 13.703125 -23.9375 14.234375 -24.382812 14.796875 -24.78125 C 15.367188 -25.175781 16.101562 -25.53125 17 -25.84375 C 17.894531 -26.164062 18.8125 -26.328125 19.75 -26.328125 C 20.707031 -26.328125 21.648438 -26.191406 22.578125 -25.921875 C 23.515625 -25.660156 24.195312 -25.394531 24.625 -25.125 L 25.328125 -24.734375 L 21.640625 -17.25 C 20.546875 -18.175781 19.015625 -18.640625 17.046875 -18.640625 C 15.984375 -18.640625 15.066406 -18.40625 14.296875 -17.9375 C 13.535156 -17.476562 13 -16.914062 12.6875 -16.25 C 12.375 -15.582031 12.148438 -15.015625 12.015625 -14.546875 C 11.878906 -14.085938 11.8125 -13.726562 11.8125 -13.46875 L 11.8125 0 Z M 2.984375 0 "/></g></g></g><g fill="#5271ff" fill-opacity="1"><g transform="translate(195.842474, 300.991795)"><g><path d="M 28.875 -11.5625 L 10.328125 -11.5625 C 10.328125 -9.769531 10.90625 -8.441406 12.0625 -7.578125 C 13.226562 -6.710938 14.492188 -6.28125 15.859375 -6.28125 C 17.285156 -6.28125 18.410156 -6.46875 19.234375 -6.84375 C 20.066406 -7.226562 21.019531 -7.988281 22.09375 -9.125 L 28.46875 -5.9375 C 25.8125 -1.476562 21.390625 0.75 15.203125 0.75 C 11.347656 0.75 8.039062 -0.570312 5.28125 -3.21875 C 2.519531 -5.863281 1.140625 -9.046875 1.140625 -12.765625 C 1.140625 -16.484375 2.519531 -19.671875 5.28125 -22.328125 C 8.039062 -24.992188 11.347656 -26.328125 15.203125 -26.328125 C 19.265625 -26.328125 22.566406 -25.15625 25.109375 -22.8125 C 27.648438 -20.46875 28.921875 -17.117188 28.921875 -12.765625 C 28.921875 -12.160156 28.90625 -11.757812 28.875 -11.5625 Z M 10.5625 -16.453125 L 20.296875 -16.453125 C 20.097656 -17.785156 19.570312 -18.804688 18.71875 -19.515625 C 17.875 -20.234375 16.785156 -20.59375 15.453125 -20.59375 C 13.992188 -20.59375 12.832031 -20.207031 11.96875 -19.4375 C 11.101562 -18.675781 10.632812 -17.679688 10.5625 -16.453125 Z M 10.5625 -16.453125 "/></g></g></g><g fill="#00acbc" fill-opacity="1"><g transform="translate(225.907726, 300.991795)"><g><path d="M 2.984375 -41.140625 L 18 -41.140625 C 22.1875 -41.140625 25.578125 -40.054688 28.171875 -37.890625 C 30.765625 -35.734375 32.0625 -32.59375 32.0625 -28.46875 C 32.0625 -24.34375 30.75 -21.109375 28.125 -18.765625 C 25.5 -16.421875 22.125 -15.25 18 -15.25 L 12.359375 -15.25 L 12.359375 0 L 2.984375 0 Z M 12.359375 -22.734375 L 15 -22.734375 C 17.101562 -22.734375 18.828125 -23.15625 20.171875 -24 C 21.515625 -24.851562 22.1875 -26.242188 22.1875 -28.171875 C 22.1875 -30.128906 21.515625 -31.53125 20.171875 -32.375 C 18.828125 -33.226562 17.101562 -33.65625 15 -33.65625 L 12.359375 -33.65625 Z M 12.359375 -22.734375 "/></g></g></g><g fill="#00acbc" fill-opacity="1"><g transform="translate(259.110473, 300.991795)"><g><path d="M 4.734375 -3.15625 C 2.335938 -5.769531 1.140625 -8.972656 1.140625 -12.765625 C 1.140625 -16.554688 2.335938 -19.765625 4.734375 -22.390625 C 7.128906 -25.015625 10.171875 -26.328125 13.859375 -26.328125 C 17.253906 -26.328125 20.046875 -25.265625 22.234375 -23.140625 L 22.234375 -25.578125 L 31.0625 -25.578125 L 31.0625 0 L 22.34375 0 L 22.34375 -2.890625 L 22.234375 -2.890625 C 20.046875 -0.460938 17.253906 0.75 13.859375 0.75 C 10.171875 0.75 7.128906 -0.550781 4.734375 -3.15625 Z M 12.234375 -17.09375 C 11.085938 -15.96875 10.515625 -14.523438 10.515625 -12.765625 C 10.515625 -11.003906 11.0625 -9.566406 12.15625 -8.453125 C 13.257812 -7.335938 14.707031 -6.78125 16.5 -6.78125 C 18.226562 -6.78125 19.648438 -7.34375 20.765625 -8.46875 C 21.878906 -9.601562 22.4375 -11.035156 22.4375 -12.765625 C 22.4375 -14.523438 21.863281 -15.96875 20.71875 -17.09375 C 19.570312 -18.226562 18.164062 -18.796875 16.5 -18.796875 C 14.800781 -18.796875 13.378906 -18.226562 12.234375 -17.09375 Z M 12.234375 -17.09375 "/></g></g></g><g fill="#00acbc" fill-opacity="1"><g transform="translate(293.160739, 300.991795)"><g><path d="M 22.390625 -25.578125 L 32.5625 -25.578125 L 12.46875 12.96875 L 2.296875 12.96875 L 11.125 -3.984375 L -1 -25.578125 L 9.171875 -25.578125 L 16.296875 -12.46875 Z M 22.390625 -25.578125 "/></g></g></g></svg>